<svg width="580" height="400" xmlns="http://www.w3.org/2000/svg">
 <!-- Created with Method Draw - http://github.com/duopixel/Method-Draw/ -->

 <g>
  <title>background</title>
  <rect fill="#fff" id="canvas_background" height="402" width="582" y="-1" x="-1"/>
  <g display="none" overflow="visible" y="0" x="0" height="100%" width="100%" id="canvasGrid">
   <rect fill="url(#gridpattern)" stroke-width="0" y="0" x="0" height="100%" width="100%"/>
  </g>
 </g>
 <g>
  <title>Layer 1</title>
  <g id="svg_24">
   <g transform="matrix(0.239563, 0, 0, 0.239563, 0, 0)" id="svg_5">
    <g id="svg_6">
     <path fill="#41e500" id="svg_7" d="m1142.617554,690.296631l0,-90.290955c0,-2.264038 0.115967,-4.501038 0.333008,-6.708008c-113.223022,29.865967 -196.718018,132.938965 -196.718018,255.544006c0,145.968994 118.329956,264.29895 264.297974,264.29895c145.967041,0 264.299072,-118.329956 264.299072,-264.29895c0,-122.605042 -83.496094,-225.67804 -196.718994,-255.54303c0.217041,2.20697 0.333984,4.442993 0.333984,6.708008l0,90.291992c61.44104,26.419983 104.579956,87.531006 104.579956,158.542053c0,95.112915 -77.380981,172.497925 -172.497925,172.497925c-95.114014,0 -172.499023,-77.382935 -172.499023,-172.497925c0.005005,-71.013062 43.147949,-132.121033 104.589966,-158.544067z"/>
     <path fill="#41e500" id="svg_8" d="m1253.965576,823.654663l0,-141.764038l0,-81.884949c0,-4.226013 -0.63501,-8.299011 -1.76001,-12.164001c-5.264038,-18.059998 -21.910034,-31.27002 -41.674072,-31.27002c-19.764893,0 -36.410889,13.210022 -41.67395,31.27002c-1.125977,3.862 -1.759033,7.937988 -1.759033,12.164001l0,81.885986l0,141.767029c0,23.987976 19.442993,43.43396 43.434082,43.43396c23.988892,-0.005005 43.432983,-19.450989 43.432983,-43.437988z"/>
    </g>
   </g>
   <g transform="matrix(0.239563, 0, 0, 0.239563, 0, 0)" id="svg_9"/>
   <g transform="matrix(0.239563, 0, 0, 0.239563, 0, 0)" id="svg_10"/>
   <g transform="matrix(0.239563, 0, 0, 0.239563, 0, 0)" id="svg_11"/>
   <g transform="matrix(0.239563, 0, 0, 0.239563, 0, 0)" id="svg_12"/>
   <g transform="matrix(0.239563, 0, 0, 0.239563, 0, 0)" id="svg_13"/>
   <g transform="matrix(0.239563, 0, 0, 0.239563, 0, 0)" id="svg_14"/>
   <g transform="matrix(0.239563, 0, 0, 0.239563, 0, 0)" id="svg_15"/>
   <g transform="matrix(0.239563, 0, 0, 0.239563, 0, 0)" id="svg_16"/>
   <g transform="matrix(0.239563, 0, 0, 0.239563, 0, 0)" id="svg_17"/>
   <g transform="matrix(0.239563, 0, 0, 0.239563, 0, 0)" id="svg_18"/>
   <g transform="matrix(0.239563, 0, 0, 0.239563, 0, 0)" id="svg_19"/>
   <g transform="matrix(0.239563, 0, 0, 0.239563, 0, 0)" id="svg_20"/>
   <g transform="matrix(0.239563, 0, 0, 0.239563, 0, 0)" id="svg_21"/>
   <g transform="matrix(0.239563, 0, 0, 0.239563, 0, 0)" id="svg_22"/>
   <g transform="matrix(0.239563, 0, 0, 0.239563, 0, 0)" id="svg_23"/>
  </g>
 </g>
</svg>